# xmcd CD database file
#
# Track frame offsets:
#	150
#	4113
#	17470
#	29663
#	44792
#	56445
#	72375
#	85878
#	98886
#	113350
#	120792
#	133738
#	147359
#	161391
#
# Disc length: 2411 seconds
#
# Revision: 0
# Processed by: cddbd v1.4PL0 Copyright (c) Steve Scherf et al.
# Submitted via: CDex 1.50
#
DISCID=b209690e
DTITLE=Country Rhythm - Country Rhythm
DYEAR=1974
DGENRE=Country
TTITLE0=Buckaroo
TTITLE1=Little Ol' Wine Drinker, Me
TTITLE2=Folsom Prison Blues
TTITLE3=Smoke, Smoke, Smoke
TTITLE4=Steel Guitar Rag
TTITLE5=Hello, Walls
TTITLE6=Under The Double Eagle
TTITLE7=City Lights
TTITLE8=Heartaches By The Number
TTITLE9=Beer Barrel Polka
TTITLE10=Almost Persuaded
TTITLE11=Yakkity Ax
TTITLE12=Intros/Promised Land
TTITLE13=Fraulein
EXTD=YEAR: 1974
EXTT0=
EXTT1=
EXTT2=
EXTT3=
EXTT4=
EXTT5=
EXTT6=
EXTT7=
EXTT8=
EXTT9=
EXTT10=
EXTT11=
EXTT12=
EXTT13=
PLAYORDER=
